<svg xmlns="http://www.w3.org/2000/svg" xmlns:xlink="http://www.w3.org/1999/xlink"
    zoomAndPan="magnify" viewBox="0 0 1024.5 576" preserveAspectRatio="xMidYMid meet"
    version="1.0">
    <defs>
        <g />
        <clipPath id="1b338fae69">
            <path
                d="M 0 226.667969 L 179.292969 226.667969 L 179.292969 405.960938 L 0 405.960938 Z M 0 226.667969 "
                clip-rule="nonzero" />
        </clipPath>
        <clipPath id="d28a1b1183">
            <path
                d="M 89.644531 226.667969 C 40.136719 226.667969 0 266.804688 0 316.3125 C 0 365.824219 40.136719 405.960938 89.644531 405.960938 C 139.15625 405.960938 179.292969 365.824219 179.292969 316.3125 C 179.292969 266.804688 139.15625 226.667969 89.644531 226.667969 Z M 89.644531 226.667969 "
                clip-rule="nonzero" />
        </clipPath>
    </defs>
    <g clip-path="url(#1b338fae69)">
        <g clip-path="url(#d28a1b1183)">
            <path fill="#38b6ff"
                d="M 0 226.667969 L 179.292969 226.667969 L 179.292969 405.960938 L 0 405.960938 Z M 0 226.667969 "
                fill-opacity="1" fill-rule="nonzero" />
        </g>
    </g>
    <path stroke-linecap="round"
        transform="matrix(0, -1.201801, 1.201801, 0, 50.796851, 371.675662)" fill="none"
        stroke-linejoin="miter"
        d="M 7.140876 7.001231 C 33.127265 34.772052 59.110404 34.742799 85.096793 6.910222 "
        stroke="#ffffff" stroke-width="10" stroke-opacity="1" stroke-miterlimit="4" />
    <path stroke-linecap="round"
        transform="matrix(1.201801, -0.000000000000001043, 0.000000000000001043, 1.201801, 45.48573, 357.517533)"
        fill="none" stroke-linejoin="miter" d="M 5.00113 5.000671 L 61.147332 5.000671 "
        stroke="#ffffff" stroke-width="10" stroke-opacity="1" stroke-miterlimit="4" />
    <path stroke-linecap="round" transform="matrix(1.201801, 0, 0, 1.201801, 45.485726, 263.568964)"
        fill="none" stroke-linejoin="miter" d="M 5.001134 5.000129 L 61.348857 5.000129 "
        stroke="#ffffff" stroke-width="10" stroke-opacity="1" stroke-miterlimit="4" />
    <path stroke-linecap="round"
        transform="matrix(0.849802, -0.849802, 0.849802, 0.849802, 111.35721, 362.887957)"
        fill="none" stroke-linejoin="miter" d="M 5.000872 4.999414 L 11.415512 5.001713 "
        stroke="#ffffff" stroke-width="10" stroke-opacity="1" stroke-miterlimit="4" />
    <path stroke-linecap="round"
        transform="matrix(0.849802, 0.849802, -0.849802, 0.849802, 119.61487, 261.72296)"
        fill="none" stroke-linejoin="miter" d="M 5.000054 5.001923 L 11.414695 4.999625 "
        stroke="#ffffff" stroke-width="10" stroke-opacity="1" stroke-miterlimit="4" />
    <g fill="#000000" fill-opacity="1">
        <g transform="translate(236.532566, 371.402179)">
            <g>
                <path
                    d="M 91.96875 -102.863281 C 90.367188 -102.863281 87.964844 -102.863281 85.398438 -99.339844 L 56.398438 -60.566406 L 27.71875 -99.339844 C 25.476562 -102.382812 22.910156 -102.863281 20.988281 -102.863281 C 16.34375 -102.863281 12.175781 -99.820312 12.175781 -94.210938 L 12.175781 -7.691406 C 12.175781 -3.042969 16.023438 0.800781 20.828125 0.800781 C 25.636719 0.800781 29.480469 -3.042969 29.480469 -7.691406 L 29.480469 -71.460938 L 50.308594 -42.460938 C 52.074219 -39.734375 54.316406 -38.613281 56.398438 -38.613281 C 59.761719 -38.613281 61.367188 -40.535156 62.808594 -42.460938 L 83.476562 -71.621094 L 83.476562 -7.691406 C 83.476562 -3.042969 87.320312 0.800781 91.96875 0.800781 C 96.9375 0.800781 100.78125 -3.042969 100.78125 -7.691406 L 100.78125 -94.210938 C 100.78125 -98.859375 96.773438 -102.863281 91.96875 -102.863281 Z M 91.96875 -102.863281 " />
            </g>
        </g>
    </g>
    <g fill="#000000" fill-opacity="1">
        <g transform="translate(349.484183, 371.402179)">
            <g>
                <path
                    d="M 58.960938 -74.34375 C 55.117188 -74.34375 52.234375 -72.101562 51.113281 -68.894531 C 47.265625 -72.582031 41.980469 -74.984375 35.570312 -74.984375 C 20.027344 -74.984375 6.570312 -62.96875 6.570312 -46.785156 L 6.570312 -26.917969 C 6.570312 -10.894531 20.027344 1.441406 35.570312 1.441406 C 41.980469 1.441406 47.265625 -1.121094 51.113281 -4.808594 C 52.234375 -1.441406 55.277344 0.480469 58.960938 0.480469 C 63.609375 0.480469 66.972656 -2.882812 66.972656 -8.011719 L 66.972656 -65.851562 C 66.972656 -70.820312 63.769531 -74.34375 58.960938 -74.34375 Z M 49.828125 -28.519531 C 49.828125 -20.1875 43.902344 -15.382812 36.851562 -15.382812 C 29.640625 -15.382812 23.714844 -20.1875 23.714844 -28.359375 L 23.714844 -45.503906 C 23.714844 -53.515625 29.640625 -58.320312 36.851562 -58.320312 C 44.0625 -58.320312 49.828125 -53.515625 49.828125 -45.34375 Z M 49.828125 -28.519531 " />
            </g>
        </g>
    </g>
    <g fill="#000000" fill-opacity="1">
        <g transform="translate(427.188479, 371.402179)">
            <g>
                <path
                    d="M 60.40625 -74.183594 C 56.398438 -74.183594 53.835938 -70.820312 53.835938 -66.011719 L 53.835938 -65.53125 C 49.828125 -71.140625 43.582031 -75.144531 35.570312 -75.144531 C 19.867188 -75.144531 6.570312 -66.011719 6.570312 -46.785156 L 6.570312 -29 C 6.570312 -10.734375 19.867188 -0.480469 35.570312 -0.480469 C 43.582031 -0.480469 49.828125 -4.484375 53.835938 -10.09375 L 53.835938 -4.324219 C 53.835938 7.691406 51.433594 13.457031 40.214844 13.457031 L 22.589844 13.457031 C 12.816406 13.457031 12.816406 28.519531 22.589844 28.519531 L 41.660156 28.519531 C 57.039062 28.519531 66.8125 19.867188 66.8125 2.5625 L 66.8125 -66.011719 C 66.8125 -70.820312 64.25 -74.183594 60.40625 -74.183594 Z M 49.667969 -30.601562 C 49.667969 -22.109375 43.902344 -17.464844 36.691406 -17.464844 C 29.480469 -17.464844 23.714844 -22.109375 23.714844 -30.601562 L 23.714844 -45.503906 C 23.714844 -53.515625 29.320312 -58.480469 36.691406 -58.480469 C 43.902344 -58.480469 49.667969 -53.515625 49.667969 -45.34375 Z M 49.667969 -30.601562 " />
            </g>
        </g>
    </g>
    <g fill="#000000" fill-opacity="1">
        <g transform="translate(504.572353, 371.402179)">
            <g>
                <path
                    d="M 58.960938 -74.34375 C 55.117188 -74.34375 52.234375 -72.101562 51.113281 -68.894531 C 47.265625 -72.582031 41.980469 -74.984375 35.570312 -74.984375 C 20.027344 -74.984375 6.570312 -62.96875 6.570312 -46.785156 L 6.570312 -26.917969 C 6.570312 -10.894531 20.027344 1.441406 35.570312 1.441406 C 41.980469 1.441406 47.265625 -1.121094 51.113281 -4.808594 C 52.234375 -1.441406 55.277344 0.480469 58.960938 0.480469 C 63.609375 0.480469 66.972656 -2.882812 66.972656 -8.011719 L 66.972656 -65.851562 C 66.972656 -70.820312 63.769531 -74.34375 58.960938 -74.34375 Z M 49.828125 -28.519531 C 49.828125 -20.1875 43.902344 -15.382812 36.851562 -15.382812 C 29.640625 -15.382812 23.714844 -20.1875 23.714844 -28.359375 L 23.714844 -45.503906 C 23.714844 -53.515625 29.640625 -58.320312 36.851562 -58.320312 C 44.0625 -58.320312 49.828125 -53.515625 49.828125 -45.34375 Z M 49.828125 -28.519531 " />
            </g>
        </g>
    </g>
    <g fill="#000000" fill-opacity="1">
        <g transform="translate(582.276648, 371.402179)">
            <g>
                <path
                    d="M 41.660156 -74.984375 C 35.890625 -74.984375 30.601562 -72.902344 26.4375 -69.21875 C 25.316406 -72.261719 22.75 -74.34375 18.746094 -74.34375 C 13.777344 -74.34375 10.574219 -70.660156 10.574219 -65.851562 L 10.574219 -8.171875 C 10.574219 -3.363281 14.742188 0.480469 19.386719 0.480469 C 24.035156 0.480469 27.71875 -3.363281 27.71875 -8.171875 L 27.71875 -45.824219 C 27.71875 -53.355469 33.488281 -58.480469 40.695312 -58.480469 C 48.066406 -58.480469 53.835938 -53.355469 53.835938 -45.824219 L 53.835938 -8.171875 C 53.835938 -3.363281 57.679688 0.480469 62.328125 0.480469 C 66.8125 0.480469 70.980469 -3.363281 70.980469 -8.171875 L 70.980469 -46.945312 C 70.980469 -63.128906 57.679688 -74.984375 41.660156 -74.984375 Z M 41.660156 -74.984375 " />
            </g>
        </g>
    </g>
    <g fill="#000000" fill-opacity="1">
        <g transform="translate(663.826117, 371.402179)">
            <g>
                <path
                    d="M 60.40625 -74.183594 C 56.398438 -74.183594 53.835938 -70.820312 53.835938 -66.011719 L 53.835938 -65.53125 C 49.828125 -71.140625 43.582031 -75.144531 35.570312 -75.144531 C 19.867188 -75.144531 6.570312 -66.011719 6.570312 -46.785156 L 6.570312 -29 C 6.570312 -10.734375 19.867188 -0.480469 35.570312 -0.480469 C 43.582031 -0.480469 49.828125 -4.484375 53.835938 -10.09375 L 53.835938 -4.324219 C 53.835938 7.691406 51.433594 13.457031 40.214844 13.457031 L 22.589844 13.457031 C 12.816406 13.457031 12.816406 28.519531 22.589844 28.519531 L 41.660156 28.519531 C 57.039062 28.519531 66.8125 19.867188 66.8125 2.5625 L 66.8125 -66.011719 C 66.8125 -70.820312 64.25 -74.183594 60.40625 -74.183594 Z M 49.667969 -30.601562 C 49.667969 -22.109375 43.902344 -17.464844 36.691406 -17.464844 C 29.480469 -17.464844 23.714844 -22.109375 23.714844 -30.601562 L 23.714844 -45.503906 C 23.714844 -53.515625 29.320312 -58.480469 36.691406 -58.480469 C 43.902344 -58.480469 49.667969 -53.515625 49.667969 -45.34375 Z M 49.667969 -30.601562 " />
            </g>
        </g>
    </g>
    <g fill="#a6a6a6" fill-opacity="1">
        <g transform="translate(741.213884, 371.402179)">
            <g>
                <path
                    d="M 7.53125 -74.503906 C 7.53125 -58.800781 19.707031 -50.628906 33.488281 -45.824219 C 47.105469 -40.855469 54.316406 -36.691406 54.316406 -28.839844 C 54.316406 -20.507812 48.226562 -14.902344 39.414062 -14.902344 C 30.28125 -14.902344 23.714844 -20.507812 19.707031 -26.917969 C 16.824219 -29.960938 14.902344 -31.082031 12.015625 -31.082031 C 6.25 -31.082031 1.441406 -24.996094 5.769531 -18.105469 C 11.535156 -7.851562 23.554688 1.441406 39.414062 1.441406 C 57.199219 1.441406 71.621094 -10.894531 71.621094 -29.480469 C 71.621094 -47.585938 57.039062 -55.117188 42.78125 -60.40625 C 32.367188 -64.089844 24.515625 -67.773438 24.675781 -75.625 C 24.675781 -82.675781 30.761719 -86.679688 37.652344 -86.679688 C 44.382812 -86.679688 49.507812 -84.277344 53.675781 -78.992188 C 56.078125 -76.90625 58 -75.144531 61.6875 -75.144531 C 67.453125 -75.144531 72.582031 -82.996094 66.652344 -89.085938 C 60.40625 -97.097656 50.46875 -103.34375 38.292969 -103.34375 C 21.789062 -103.34375 7.53125 -92.929688 7.53125 -74.503906 Z M 7.53125 -74.503906 " />
            </g>
        </g>
    </g>
    <g fill="#a6a6a6" fill-opacity="1">
        <g transform="translate(818.27732, 371.402179)">
            <g>
                <path
                    d="M 10.09375 -101.902344 C 4.648438 -101.902344 1.601562 -98.699219 1.601562 -93.25 C 1.601562 -88.125 4.648438 -84.4375 10.09375 -84.4375 L 28.679688 -84.4375 L 28.679688 -8.011719 C 28.679688 -2.722656 32.203125 0.480469 37.332031 0.480469 C 42.941406 0.480469 45.984375 -2.722656 45.984375 -8.332031 L 45.984375 -84.4375 L 64.410156 -84.4375 C 69.859375 -84.4375 73.0625 -88.125 73.0625 -93.089844 C 73.0625 -98.699219 69.859375 -101.902344 64.410156 -101.902344 Z M 10.09375 -101.902344 " />
            </g>
        </g>
    </g>
    <g fill="#a6a6a6" fill-opacity="1">
        <g transform="translate(892.937538, 371.402179)">
            <g>
                <path
                    d="M 29.640625 -93.890625 C 29.640625 -98.699219 25.636719 -102.382812 20.828125 -102.382812 C 16.183594 -102.382812 12.175781 -98.699219 12.175781 -93.890625 L 12.175781 -8.011719 C 12.175781 -3.203125 16.023438 0.480469 20.828125 0.480469 C 25.476562 0.480469 29.640625 -3.203125 29.640625 -8.011719 Z M 29.640625 -93.890625 " />
            </g>
        </g>
    </g>
    <g fill="#a6a6a6" fill-opacity="1">
        <g transform="translate(934.593452, 371.402179)">
            <g>
                <path
                    d="M 7.53125 -74.503906 C 7.53125 -58.800781 19.707031 -50.628906 33.488281 -45.824219 C 47.105469 -40.855469 54.316406 -36.691406 54.316406 -28.839844 C 54.316406 -20.507812 48.226562 -14.902344 39.414062 -14.902344 C 30.28125 -14.902344 23.714844 -20.507812 19.707031 -26.917969 C 16.824219 -29.960938 14.902344 -31.082031 12.015625 -31.082031 C 6.25 -31.082031 1.441406 -24.996094 5.769531 -18.105469 C 11.535156 -7.851562 23.554688 1.441406 39.414062 1.441406 C 57.199219 1.441406 71.621094 -10.894531 71.621094 -29.480469 C 71.621094 -47.585938 57.039062 -55.117188 42.78125 -60.40625 C 32.367188 -64.089844 24.515625 -67.773438 24.675781 -75.625 C 24.675781 -82.675781 30.761719 -86.679688 37.652344 -86.679688 C 44.382812 -86.679688 49.507812 -84.277344 53.675781 -78.992188 C 56.078125 -76.90625 58 -75.144531 61.6875 -75.144531 C 67.453125 -75.144531 72.582031 -82.996094 66.652344 -89.085938 C 60.40625 -97.097656 50.46875 -103.34375 38.292969 -103.34375 C 21.789062 -103.34375 7.53125 -92.929688 7.53125 -74.503906 Z M 7.53125 -74.503906 " />
            </g>
        </g>
    </g>
</svg>