<svg xmlns="http://www.w3.org/2000/svg" xmlns:xlink="http://www.w3.org/1999/xlink" width="1200" zoomAndPan="magnify" viewBox="0 0 900 187.499995" height="250" preserveAspectRatio="xMidYMid meet" version="1.0"><defs><g/><clipPath id="2aa433a99c"><path d="M 16.546875 18.117188 L 169.507812 18.117188 L 169.507812 171.078125 L 16.546875 171.078125 Z M 16.546875 18.117188 " clip-rule="nonzero"/></clipPath><clipPath id="b2c4d5fa92"><path d="M 93.027344 18.117188 C 50.789062 18.117188 16.546875 52.359375 16.546875 94.597656 C 16.546875 136.835938 50.789062 171.078125 93.027344 171.078125 C 135.265625 171.078125 169.507812 136.835938 169.507812 94.597656 C 169.507812 52.359375 135.265625 18.117188 93.027344 18.117188 Z M 93.027344 18.117188 " clip-rule="nonzero"/></clipPath><clipPath id="62e00c0592"><path d="M 7 0 L 148 0 L 148 187 L 7 187 Z M 7 0 " clip-rule="nonzero"/></clipPath><clipPath id="9eedf38648"><path d="M 59 70 L 183 70 L 183 187 L 59 187 Z M 59 70 " clip-rule="nonzero"/></clipPath></defs><g clip-path="url(#2aa433a99c)"><g clip-path="url(#b2c4d5fa92)"><path fill="#38b6ff" d="M 16.546875 18.117188 L 169.507812 18.117188 L 169.507812 171.078125 L 16.546875 171.078125 Z M 16.546875 18.117188 " fill-opacity="1" fill-rule="nonzero"/></g></g><g clip-path="url(#62e00c0592)"><path stroke-linecap="round" transform="matrix(0, -0.748005, 0.748005, 0, 59.813001, 141.918149)" fill="none" stroke-linejoin="miter" d="M 9.995575 9.79622 C 45.538022 47.709556 81.080469 47.683445 116.622916 9.707442 " stroke="#ffffff" stroke-width="14" stroke-opacity="1" stroke-miterlimit="4"/></g><path stroke-linecap="round" transform="matrix(0.748005, -0.000000000000000464, 0.000000000000000464, 0.748005, 55.351457, 129.640271)" fill="none" stroke-linejoin="miter" d="M 6.997919 6.998252 L 83.670591 6.998252 " stroke="#ffffff" stroke-width="14" stroke-opacity="1" stroke-miterlimit="4"/><path stroke-linecap="round" transform="matrix(0.748005, 0, 0, 0.748005, 55.351457, 49.489527)" fill="none" stroke-linejoin="miter" d="M 6.997919 7.001335 L 83.942147 7.001335 " stroke="#ffffff" stroke-width="14" stroke-opacity="1" stroke-miterlimit="4"/><g clip-path="url(#9eedf38648)"><path stroke-linecap="round" transform="matrix(0.52892, -0.52892, 0.52892, 0.52892, 111.472514, 134.257172)" fill="none" stroke-linejoin="miter" d="M 7.00083 7.00204 L 15.501354 7.00204 " stroke="#ffffff" stroke-width="14" stroke-opacity="1" stroke-miterlimit="4"/></g><path stroke-linecap="round" transform="matrix(0.52892, 0.52892, -0.52892, 0.52892, 118.672327, 47.943617)" fill="none" stroke-linejoin="miter" d="M 6.998784 6.999638 L 15.499308 6.999638 " stroke="#ffffff" stroke-width="14" stroke-opacity="1" stroke-miterlimit="4"/><g fill="#000000" fill-opacity="1"><g transform="translate(211.638208, 136.077343)"><g><path d="M 78.460938 -87.757812 C 77.09375 -87.757812 75.042969 -87.757812 72.855469 -84.75 L 48.117188 -51.667969 L 23.648438 -84.75 C 21.734375 -87.347656 19.546875 -87.757812 17.90625 -87.757812 C 13.941406 -87.757812 10.386719 -85.160156 10.386719 -80.375 L 10.386719 -6.5625 C 10.386719 -2.597656 13.667969 0.683594 17.769531 0.683594 C 21.871094 0.683594 25.152344 -2.597656 25.152344 -6.5625 L 25.152344 -60.964844 L 42.921875 -36.222656 C 44.425781 -33.898438 46.339844 -32.941406 48.117188 -32.941406 C 50.988281 -32.941406 52.351562 -34.582031 53.582031 -36.222656 L 71.21875 -61.101562 L 71.21875 -6.5625 C 71.21875 -2.597656 74.496094 0.683594 78.460938 0.683594 C 82.699219 0.683594 85.980469 -2.597656 85.980469 -6.5625 L 85.980469 -80.375 C 85.980469 -84.339844 82.5625 -87.757812 78.460938 -87.757812 Z M 78.460938 -87.757812 "/></g></g></g><g fill="#000000" fill-opacity="1"><g transform="translate(308.001112, 136.077343)"><g><path d="M 50.304688 -63.425781 C 47.023438 -63.425781 44.5625 -61.511719 43.605469 -58.777344 C 40.324219 -61.921875 35.8125 -63.972656 30.347656 -63.972656 C 17.085938 -63.972656 5.605469 -53.71875 5.605469 -39.914062 L 5.605469 -22.964844 C 5.605469 -9.296875 17.085938 1.230469 30.347656 1.230469 C 35.8125 1.230469 40.324219 -0.957031 43.605469 -4.101562 C 44.5625 -1.230469 47.160156 0.410156 50.304688 0.410156 C 54.265625 0.410156 57.136719 -2.460938 57.136719 -6.835938 L 57.136719 -56.179688 C 57.136719 -60.417969 54.402344 -63.425781 50.304688 -63.425781 Z M 42.511719 -24.332031 C 42.511719 -17.222656 37.453125 -13.121094 31.4375 -13.121094 C 25.289062 -13.121094 20.230469 -17.222656 20.230469 -24.195312 L 20.230469 -38.820312 C 20.230469 -45.65625 25.289062 -49.757812 31.4375 -49.757812 C 37.589844 -49.757812 42.511719 -45.65625 42.511719 -38.683594 Z M 42.511719 -24.332031 "/></g></g></g><g fill="#000000" fill-opacity="1"><g transform="translate(374.293314, 136.077343)"><g><path d="M 51.53125 -63.289062 C 48.117188 -63.289062 45.929688 -60.417969 45.929688 -56.316406 L 45.929688 -55.90625 C 42.511719 -60.691406 37.179688 -64.109375 30.347656 -64.109375 C 16.949219 -64.109375 5.605469 -56.316406 5.605469 -39.914062 L 5.605469 -24.742188 C 5.605469 -9.160156 16.949219 -0.410156 30.347656 -0.410156 C 37.179688 -0.410156 42.511719 -3.828125 45.929688 -8.613281 L 45.929688 -3.691406 C 45.929688 6.5625 43.878906 11.480469 34.308594 11.480469 L 19.273438 11.480469 C 10.933594 11.480469 10.933594 24.332031 19.273438 24.332031 L 35.539062 24.332031 C 48.664062 24.332031 57 16.949219 57 2.1875 L 57 -56.316406 C 57 -60.417969 54.8125 -63.289062 51.53125 -63.289062 Z M 42.375 -26.109375 C 42.375 -18.863281 37.453125 -14.898438 31.300781 -14.898438 C 25.152344 -14.898438 20.230469 -18.863281 20.230469 -26.109375 L 20.230469 -38.820312 C 20.230469 -45.65625 25.015625 -49.894531 31.300781 -49.894531 C 37.453125 -49.894531 42.375 -45.65625 42.375 -38.683594 Z M 42.375 -26.109375 "/></g></g></g><g fill="#000000" fill-opacity="1"><g transform="translate(440.312155, 136.077343)"><g><path d="M 50.304688 -63.425781 C 47.023438 -63.425781 44.5625 -61.511719 43.605469 -58.777344 C 40.324219 -61.921875 35.8125 -63.972656 30.347656 -63.972656 C 17.085938 -63.972656 5.605469 -53.71875 5.605469 -39.914062 L 5.605469 -22.964844 C 5.605469 -9.296875 17.085938 1.230469 30.347656 1.230469 C 35.8125 1.230469 40.324219 -0.957031 43.605469 -4.101562 C 44.5625 -1.230469 47.160156 0.410156 50.304688 0.410156 C 54.265625 0.410156 57.136719 -2.460938 57.136719 -6.835938 L 57.136719 -56.179688 C 57.136719 -60.417969 54.402344 -63.425781 50.304688 -63.425781 Z M 42.511719 -24.332031 C 42.511719 -17.222656 37.453125 -13.121094 31.4375 -13.121094 C 25.289062 -13.121094 20.230469 -17.222656 20.230469 -24.195312 L 20.230469 -38.820312 C 20.230469 -45.65625 25.289062 -49.757812 31.4375 -49.757812 C 37.589844 -49.757812 42.511719 -45.65625 42.511719 -38.683594 Z M 42.511719 -24.332031 "/></g></g></g><g fill="#000000" fill-opacity="1"><g transform="translate(506.604358, 136.077343)"><g><path d="M 35.539062 -63.972656 C 30.621094 -63.972656 26.109375 -62.195312 22.554688 -59.050781 C 21.597656 -61.648438 19.410156 -63.425781 15.992188 -63.425781 C 11.753906 -63.425781 9.023438 -60.28125 9.023438 -56.179688 L 9.023438 -6.972656 C 9.023438 -2.871094 12.574219 0.410156 16.539062 0.410156 C 20.503906 0.410156 23.648438 -2.871094 23.648438 -6.972656 L 23.648438 -39.09375 C 23.648438 -45.519531 28.570312 -49.894531 34.71875 -49.894531 C 41.007812 -49.894531 45.929688 -45.519531 45.929688 -39.09375 L 45.929688 -6.972656 C 45.929688 -2.871094 49.210938 0.410156 53.171875 0.410156 C 57 0.410156 60.554688 -2.871094 60.554688 -6.972656 L 60.554688 -40.050781 C 60.554688 -53.855469 49.210938 -63.972656 35.539062 -63.972656 Z M 35.539062 -63.972656 "/></g></g></g><g fill="#000000" fill-opacity="1"><g transform="translate(576.17701, 136.077343)"><g><path d="M 51.53125 -63.289062 C 48.117188 -63.289062 45.929688 -60.417969 45.929688 -56.316406 L 45.929688 -55.90625 C 42.511719 -60.691406 37.179688 -64.109375 30.347656 -64.109375 C 16.949219 -64.109375 5.605469 -56.316406 5.605469 -39.914062 L 5.605469 -24.742188 C 5.605469 -9.160156 16.949219 -0.410156 30.347656 -0.410156 C 37.179688 -0.410156 42.511719 -3.828125 45.929688 -8.613281 L 45.929688 -3.691406 C 45.929688 6.5625 43.878906 11.480469 34.308594 11.480469 L 19.273438 11.480469 C 10.933594 11.480469 10.933594 24.332031 19.273438 24.332031 L 35.539062 24.332031 C 48.664062 24.332031 57 16.949219 57 2.1875 L 57 -56.316406 C 57 -60.417969 54.8125 -63.289062 51.53125 -63.289062 Z M 42.375 -26.109375 C 42.375 -18.863281 37.453125 -14.898438 31.300781 -14.898438 C 25.152344 -14.898438 20.230469 -18.863281 20.230469 -26.109375 L 20.230469 -38.820312 C 20.230469 -45.65625 25.015625 -49.894531 31.300781 -49.894531 C 37.453125 -49.894531 42.375 -45.65625 42.375 -38.683594 Z M 42.375 -26.109375 "/></g></g></g><g fill="#a6a6a6" fill-opacity="1"><g transform="translate(642.199171, 136.077343)"><g><path d="M 6.425781 -63.5625 C 6.425781 -50.167969 16.8125 -43.195312 28.570312 -39.09375 C 40.1875 -34.855469 46.339844 -31.300781 46.339844 -24.605469 C 46.339844 -17.496094 41.144531 -12.710938 33.625 -12.710938 C 25.835938 -12.710938 20.230469 -17.496094 16.8125 -22.964844 C 14.351562 -25.5625 12.710938 -26.519531 10.25 -26.519531 C 5.332031 -26.519531 1.230469 -21.324219 4.921875 -15.445312 C 9.84375 -6.699219 20.09375 1.230469 33.625 1.230469 C 48.800781 1.230469 61.101562 -9.296875 61.101562 -25.152344 C 61.101562 -40.597656 48.664062 -47.023438 36.496094 -51.53125 C 27.613281 -54.675781 20.914062 -57.820312 21.050781 -64.519531 C 21.050781 -70.535156 26.246094 -73.949219 32.121094 -73.949219 C 37.863281 -73.949219 42.238281 -71.898438 45.792969 -67.390625 C 47.84375 -65.613281 49.484375 -64.109375 52.625 -64.109375 C 57.546875 -64.109375 61.921875 -70.808594 56.863281 -76 C 51.53125 -82.835938 43.058594 -88.167969 32.667969 -88.167969 C 18.589844 -88.167969 6.425781 -79.28125 6.425781 -63.5625 Z M 6.425781 -63.5625 "/></g></g></g><g fill="#a6a6a6" fill-opacity="1"><g transform="translate(707.944635, 136.077343)"><g><path d="M 8.613281 -86.9375 C 3.964844 -86.9375 1.367188 -84.203125 1.367188 -79.554688 C 1.367188 -75.179688 3.964844 -72.035156 8.613281 -72.035156 L 24.46875 -72.035156 L 24.46875 -6.835938 C 24.46875 -2.324219 27.476562 0.410156 31.847656 0.410156 C 36.632812 0.410156 39.230469 -2.324219 39.230469 -7.109375 L 39.230469 -72.035156 L 54.949219 -72.035156 C 59.597656 -72.035156 62.332031 -75.179688 62.332031 -79.417969 C 62.332031 -84.203125 59.597656 -86.9375 54.949219 -86.9375 Z M 8.613281 -86.9375 "/></g></g></g><g fill="#a6a6a6" fill-opacity="1"><g transform="translate(771.639831, 136.077343)"><g><path d="M 25.289062 -80.101562 C 25.289062 -84.203125 21.871094 -87.347656 17.769531 -87.347656 C 13.804688 -87.347656 10.386719 -84.203125 10.386719 -80.101562 L 10.386719 -6.835938 C 10.386719 -2.734375 13.667969 0.410156 17.769531 0.410156 C 21.734375 0.410156 25.289062 -2.734375 25.289062 -6.835938 Z M 25.289062 -80.101562 "/></g></g></g><g fill="#a6a6a6" fill-opacity="1"><g transform="translate(807.177921, 136.077343)"><g><path d="M 6.425781 -63.5625 C 6.425781 -50.167969 16.8125 -43.195312 28.570312 -39.09375 C 40.1875 -34.855469 46.339844 -31.300781 46.339844 -24.605469 C 46.339844 -17.496094 41.144531 -12.710938 33.625 -12.710938 C 25.835938 -12.710938 20.230469 -17.496094 16.8125 -22.964844 C 14.351562 -25.5625 12.710938 -26.519531 10.25 -26.519531 C 5.332031 -26.519531 1.230469 -21.324219 4.921875 -15.445312 C 9.84375 -6.699219 20.09375 1.230469 33.625 1.230469 C 48.800781 1.230469 61.101562 -9.296875 61.101562 -25.152344 C 61.101562 -40.597656 48.664062 -47.023438 36.496094 -51.53125 C 27.613281 -54.675781 20.914062 -57.820312 21.050781 -64.519531 C 21.050781 -70.535156 26.246094 -73.949219 32.121094 -73.949219 C 37.863281 -73.949219 42.238281 -71.898438 45.792969 -67.390625 C 47.84375 -65.613281 49.484375 -64.109375 52.625 -64.109375 C 57.546875 -64.109375 61.921875 -70.808594 56.863281 -76 C 51.53125 -82.835938 43.058594 -88.167969 32.667969 -88.167969 C 18.589844 -88.167969 6.425781 -79.28125 6.425781 -63.5625 Z M 6.425781 -63.5625 "/></g></g></g></svg>