<svg xmlns="http://www.w3.org/2000/svg" xmlns:xlink="http://www.w3.org/1999/xlink"
    zoomAndPan="magnify" viewBox="0 0 397.5 110.999996"
    preserveAspectRatio="xMidYMid meet" version="1.0">
    <defs>
        <g />
        <clipPath id="1e905162f0">
            <path d="M 0 5.625 L 88.683594 5.625 L 88.683594 94.308594 L 0 94.308594 Z M 0 5.625 "
                clip-rule="nonzero" />
        </clipPath>
        <clipPath id="78321b3418">
            <path
                d="M 44.339844 5.625 C 19.851562 5.625 0 25.476562 0 49.96875 C 0 74.457031 19.851562 94.308594 44.339844 94.308594 C 68.828125 94.308594 88.683594 74.457031 88.683594 49.96875 C 88.683594 25.476562 68.828125 5.625 44.339844 5.625 Z M 44.339844 5.625 "
                clip-rule="nonzero" />
        </clipPath>
        <clipPath id="a94d9492e2">
            <path d="M 0 0.0703125 L 76 0.0703125 L 76 107 L 0 107 Z M 0 0.0703125 "
                clip-rule="nonzero" />
        </clipPath>
        <clipPath id="f2bc27255a">
            <path d="M 25 0.0703125 L 96 0.0703125 L 96 64 L 25 64 Z M 25 0.0703125 "
                clip-rule="nonzero" />
        </clipPath>
    </defs>
    <g clip-path="url(#1e905162f0)">
        <g clip-path="url(#78321b3418)">
            <path fill="#38b6ff"
                d="M 0 5.625 L 88.683594 5.625 L 88.683594 94.308594 L 0 94.308594 Z M 0 5.625 "
                fill-opacity="1" fill-rule="nonzero" />
        </g>
    </g>
    <g clip-path="url(#a94d9492e2)">
        <path stroke-linecap="round"
            transform="matrix(0, -0.594439, 0.594439, 0, 25.125295, 77.350091)" fill="none"
            stroke-linejoin="miter"
            d="M 7.140557 6.997966 C 33.123584 34.768395 59.113183 34.74211 85.096211 6.912539 "
            stroke="#ffffff" stroke-width="10" stroke-opacity="1" stroke-miterlimit="4" />
    </g>
    <path stroke-linecap="round"
        transform="matrix(0.594439, -0.000000000000000516, 0.000000000000000516, 0.594439, 22.498292, 70.347139)"
        fill="none" stroke-linejoin="miter" d="M 4.997082 5.00165 L 61.149072 5.00165 "
        stroke="#ffffff" stroke-width="10" stroke-opacity="1" stroke-miterlimit="4" />
    <path stroke-linecap="round" transform="matrix(0.594439, 0, 0, 0.594439, 22.49829, 23.878019)"
        fill="none" stroke-linejoin="miter" d="M 4.997085 5.002273 L 61.346215 5.002273 "
        stroke="#ffffff" stroke-width="10" stroke-opacity="1" stroke-miterlimit="4" />
    <path stroke-linecap="round"
        transform="matrix(0.420331, -0.420331, 0.420331, 0.420331, 55.079852, 73.003485)"
        fill="none" stroke-linejoin="miter" d="M 4.997219 4.998221 L 11.414215 5.002868 "
        stroke="#ffffff" stroke-width="10" stroke-opacity="1" stroke-miterlimit="4" />
    <g clip-path="url(#f2bc27255a)">
        <path stroke-linecap="round"
            transform="matrix(0.420331, 0.420331, -0.420331, 0.420331, 59.164275, 22.964949)"
            fill="none" stroke-linejoin="miter" d="M 4.999395 4.999902 L 11.411745 4.999902 "
            stroke="#ffffff" stroke-width="10" stroke-opacity="1" stroke-miterlimit="4" />
    </g>
    <g fill="#000000" fill-opacity="1">
        <g transform="translate(106.112028, 68.150959)">
            <g>
                <path
                    d="M 31.84375 -35.617188 C 31.289062 -35.617188 30.457031 -35.617188 29.570312 -34.398438 L 19.527344 -20.972656 L 9.597656 -34.398438 C 8.820312 -35.449219 7.933594 -35.617188 7.269531 -35.617188 C 5.660156 -35.617188 4.214844 -34.5625 4.214844 -32.621094 L 4.214844 -2.664062 C 4.214844 -1.054688 5.546875 0.277344 7.210938 0.277344 C 8.875 0.277344 10.207031 -1.054688 10.207031 -2.664062 L 10.207031 -24.742188 L 17.421875 -14.703125 C 18.03125 -13.757812 18.808594 -13.371094 19.527344 -13.371094 C 20.695312 -13.371094 21.25 -14.035156 21.746094 -14.703125 L 28.90625 -24.800781 L 28.90625 -2.664062 C 28.90625 -1.054688 30.234375 0.277344 31.84375 0.277344 C 33.566406 0.277344 34.894531 -1.054688 34.894531 -2.664062 L 34.894531 -32.621094 C 34.894531 -34.230469 33.507812 -35.617188 31.84375 -35.617188 Z M 31.84375 -35.617188 " />
            </g>
        </g>
    </g>
    <g fill="#000000" fill-opacity="1">
        <g transform="translate(145.223944, 68.150959)">
            <g>
                <path
                    d="M 20.417969 -25.742188 C 19.085938 -25.742188 18.085938 -24.964844 17.699219 -23.855469 C 16.367188 -25.132812 14.535156 -25.964844 12.316406 -25.964844 C 6.933594 -25.964844 2.273438 -21.804688 2.273438 -16.199219 L 2.273438 -9.320312 C 2.273438 -3.773438 6.933594 0.5 12.316406 0.5 C 14.535156 0.5 16.367188 -0.386719 17.699219 -1.664062 C 18.085938 -0.5 19.140625 0.167969 20.417969 0.167969 C 22.023438 0.167969 23.191406 -1 23.191406 -2.773438 L 23.191406 -22.800781 C 23.191406 -24.523438 22.082031 -25.742188 20.417969 -25.742188 Z M 17.253906 -9.875 C 17.253906 -6.992188 15.203125 -5.324219 12.761719 -5.324219 C 10.261719 -5.324219 8.210938 -6.992188 8.210938 -9.820312 L 8.210938 -15.757812 C 8.210938 -18.53125 10.261719 -20.195312 12.761719 -20.195312 C 15.257812 -20.195312 17.253906 -18.53125 17.253906 -15.699219 Z M 17.253906 -9.875 " />
            </g>
        </g>
    </g>
    <g fill="#000000" fill-opacity="1">
        <g transform="translate(172.130723, 68.150959)">
            <g>
                <path
                    d="M 20.914062 -25.6875 C 19.527344 -25.6875 18.640625 -24.523438 18.640625 -22.855469 L 18.640625 -22.691406 C 17.253906 -24.632812 15.089844 -26.019531 12.316406 -26.019531 C 6.878906 -26.019531 2.273438 -22.855469 2.273438 -16.199219 L 2.273438 -10.042969 C 2.273438 -3.71875 6.878906 -0.167969 12.316406 -0.167969 C 15.089844 -0.167969 17.253906 -1.554688 18.640625 -3.496094 L 18.640625 -1.496094 C 18.640625 2.664062 17.808594 4.660156 13.925781 4.660156 L 7.824219 4.660156 C 4.4375 4.660156 4.4375 9.875 7.824219 9.875 L 14.425781 9.875 C 19.75 9.875 23.132812 6.878906 23.132812 0.886719 L 23.132812 -22.855469 C 23.132812 -24.523438 22.246094 -25.6875 20.914062 -25.6875 Z M 17.199219 -10.597656 C 17.199219 -7.65625 15.203125 -6.046875 12.703125 -6.046875 C 10.207031 -6.046875 8.210938 -7.65625 8.210938 -10.597656 L 8.210938 -15.757812 C 8.210938 -18.53125 10.152344 -20.25 12.703125 -20.25 C 15.203125 -20.25 17.199219 -18.53125 17.199219 -15.699219 Z M 17.199219 -10.597656 " />
            </g>
        </g>
    </g>
    <g fill="#000000" fill-opacity="1">
        <g transform="translate(198.926552, 68.150959)">
            <g>
                <path
                    d="M 20.417969 -25.742188 C 19.085938 -25.742188 18.085938 -24.964844 17.699219 -23.855469 C 16.367188 -25.132812 14.535156 -25.964844 12.316406 -25.964844 C 6.933594 -25.964844 2.273438 -21.804688 2.273438 -16.199219 L 2.273438 -9.320312 C 2.273438 -3.773438 6.933594 0.5 12.316406 0.5 C 14.535156 0.5 16.367188 -0.386719 17.699219 -1.664062 C 18.085938 -0.5 19.140625 0.167969 20.417969 0.167969 C 22.023438 0.167969 23.191406 -1 23.191406 -2.773438 L 23.191406 -22.800781 C 23.191406 -24.523438 22.082031 -25.742188 20.417969 -25.742188 Z M 17.253906 -9.875 C 17.253906 -6.992188 15.203125 -5.324219 12.761719 -5.324219 C 10.261719 -5.324219 8.210938 -6.992188 8.210938 -9.820312 L 8.210938 -15.757812 C 8.210938 -18.53125 10.261719 -20.195312 12.761719 -20.195312 C 15.257812 -20.195312 17.253906 -18.53125 17.253906 -15.699219 Z M 17.253906 -9.875 " />
            </g>
        </g>
    </g>
    <g fill="#000000" fill-opacity="1">
        <g transform="translate(225.833331, 68.150959)">
            <g>
                <path
                    d="M 14.425781 -25.964844 C 12.425781 -25.964844 10.597656 -25.242188 9.152344 -23.96875 C 8.765625 -25.019531 7.878906 -25.742188 6.492188 -25.742188 C 4.769531 -25.742188 3.660156 -24.464844 3.660156 -22.800781 L 3.660156 -2.828125 C 3.660156 -1.164062 5.105469 0.167969 6.714844 0.167969 C 8.320312 0.167969 9.597656 -1.164062 9.597656 -2.828125 L 9.597656 -15.867188 C 9.597656 -18.472656 11.59375 -20.25 14.089844 -20.25 C 16.644531 -20.25 18.640625 -18.472656 18.640625 -15.867188 L 18.640625 -2.828125 C 18.640625 -1.164062 19.972656 0.167969 21.582031 0.167969 C 23.132812 0.167969 24.578125 -1.164062 24.578125 -2.828125 L 24.578125 -16.253906 C 24.578125 -21.859375 19.972656 -25.964844 14.425781 -25.964844 Z M 14.425781 -25.964844 " />
            </g>
        </g>
    </g>
    <g fill="#000000" fill-opacity="1">
        <g transform="translate(254.071583, 68.150959)">
            <g>
                <path
                    d="M 20.914062 -25.6875 C 19.527344 -25.6875 18.640625 -24.523438 18.640625 -22.855469 L 18.640625 -22.691406 C 17.253906 -24.632812 15.089844 -26.019531 12.316406 -26.019531 C 6.878906 -26.019531 2.273438 -22.855469 2.273438 -16.199219 L 2.273438 -10.042969 C 2.273438 -3.71875 6.878906 -0.167969 12.316406 -0.167969 C 15.089844 -0.167969 17.253906 -1.554688 18.640625 -3.496094 L 18.640625 -1.496094 C 18.640625 2.664062 17.808594 4.660156 13.925781 4.660156 L 7.824219 4.660156 C 4.4375 4.660156 4.4375 9.875 7.824219 9.875 L 14.425781 9.875 C 19.75 9.875 23.132812 6.878906 23.132812 0.886719 L 23.132812 -22.855469 C 23.132812 -24.523438 22.246094 -25.6875 20.914062 -25.6875 Z M 17.199219 -10.597656 C 17.199219 -7.65625 15.203125 -6.046875 12.703125 -6.046875 C 10.207031 -6.046875 8.210938 -7.65625 8.210938 -10.597656 L 8.210938 -15.757812 C 8.210938 -18.53125 10.152344 -20.25 12.703125 -20.25 C 15.203125 -20.25 17.199219 -18.53125 17.199219 -15.699219 Z M 17.199219 -10.597656 " />
            </g>
        </g>
    </g>
    <g fill="#a6a6a6" fill-opacity="1">
        <g transform="translate(280.867669, 68.150959)">
            <g>
                <path
                    d="M 2.609375 -25.796875 C 2.609375 -20.359375 6.824219 -17.53125 11.59375 -15.867188 C 16.3125 -14.148438 18.808594 -12.703125 18.808594 -9.984375 C 18.808594 -7.101562 16.699219 -5.160156 13.648438 -5.160156 C 10.484375 -5.160156 8.210938 -7.101562 6.824219 -9.320312 C 5.824219 -10.375 5.160156 -10.761719 4.160156 -10.761719 C 2.164062 -10.761719 0.5 -8.65625 1.996094 -6.269531 C 3.996094 -2.71875 8.15625 0.5 13.648438 0.5 C 19.804688 0.5 24.800781 -3.773438 24.800781 -10.207031 C 24.800781 -16.476562 19.75 -19.085938 14.8125 -20.914062 C 11.207031 -22.191406 8.488281 -23.46875 8.542969 -26.1875 C 8.542969 -28.628906 10.652344 -30.015625 13.039062 -30.015625 C 15.367188 -30.015625 17.144531 -29.183594 18.585938 -27.351562 C 19.417969 -26.628906 20.082031 -26.019531 21.359375 -26.019531 C 23.355469 -26.019531 25.132812 -28.738281 23.078125 -30.847656 C 20.914062 -33.621094 17.476562 -35.785156 13.257812 -35.785156 C 7.546875 -35.785156 2.609375 -32.179688 2.609375 -25.796875 Z M 2.609375 -25.796875 " />
            </g>
        </g>
    </g>
    <g fill="#a6a6a6" fill-opacity="1">
        <g transform="translate(307.55254, 68.150959)">
            <g>
                <path
                    d="M 3.496094 -35.285156 C 1.609375 -35.285156 0.554688 -34.175781 0.554688 -32.289062 C 0.554688 -30.511719 1.609375 -29.238281 3.496094 -29.238281 L 9.929688 -29.238281 L 9.929688 -2.773438 C 9.929688 -0.941406 11.152344 0.167969 12.925781 0.167969 C 14.867188 0.167969 15.921875 -0.941406 15.921875 -2.886719 L 15.921875 -29.238281 L 22.300781 -29.238281 C 24.1875 -29.238281 25.296875 -30.511719 25.296875 -32.234375 C 25.296875 -34.175781 24.1875 -35.285156 22.300781 -35.285156 Z M 3.496094 -35.285156 " />
            </g>
        </g>
    </g>
    <g fill="#a6a6a6" fill-opacity="1">
        <g transform="translate(333.405237, 68.150959)">
            <g>
                <path
                    d="M 10.261719 -32.511719 C 10.261719 -34.175781 8.875 -35.449219 7.210938 -35.449219 C 5.601562 -35.449219 4.214844 -34.175781 4.214844 -32.511719 L 4.214844 -2.773438 C 4.214844 -1.109375 5.546875 0.167969 7.210938 0.167969 C 8.820312 0.167969 10.261719 -1.109375 10.261719 -2.773438 Z M 10.261719 -32.511719 " />
            </g>
        </g>
    </g>
    <g fill="#a6a6a6" fill-opacity="1">
        <g transform="translate(347.829487, 68.150959)">
            <g>
                <path
                    d="M 2.609375 -25.796875 C 2.609375 -20.359375 6.824219 -17.53125 11.59375 -15.867188 C 16.3125 -14.148438 18.808594 -12.703125 18.808594 -9.984375 C 18.808594 -7.101562 16.699219 -5.160156 13.648438 -5.160156 C 10.484375 -5.160156 8.210938 -7.101562 6.824219 -9.320312 C 5.824219 -10.375 5.160156 -10.761719 4.160156 -10.761719 C 2.164062 -10.761719 0.5 -8.65625 1.996094 -6.269531 C 3.996094 -2.71875 8.15625 0.5 13.648438 0.5 C 19.804688 0.5 24.800781 -3.773438 24.800781 -10.207031 C 24.800781 -16.476562 19.75 -19.085938 14.8125 -20.914062 C 11.207031 -22.191406 8.488281 -23.46875 8.542969 -26.1875 C 8.542969 -28.628906 10.652344 -30.015625 13.039062 -30.015625 C 15.367188 -30.015625 17.144531 -29.183594 18.585938 -27.351562 C 19.417969 -26.628906 20.082031 -26.019531 21.359375 -26.019531 C 23.355469 -26.019531 25.132812 -28.738281 23.078125 -30.847656 C 20.914062 -33.621094 17.476562 -35.785156 13.257812 -35.785156 C 7.546875 -35.785156 2.609375 -32.179688 2.609375 -25.796875 Z M 2.609375 -25.796875 " />
            </g>
        </g>
    </g>
</svg>